<svg xmlns="http://www.w3.org/2000/svg" xmlns:xlink="http://www.w3.org/1999/xlink" width="50" zoomAndPan="magnify" viewBox="0 0 37.5 37.499999" height="50" preserveAspectRatio="xMidYMid meet" version="1.0"><defs><clipPath id="d00a3993a2"><path d="M 3.699219 3.699219 L 33.304688 3.699219 L 33.304688 34 L 3.699219 34 Z M 3.699219 3.699219 " clip-rule="nonzero"/></clipPath></defs><path fill="#ff8869" d="M 24.046875 11.070312 C 23.957031 11.097656 23.847656 11.136719 24.046875 11.070312 Z M 24.046875 11.070312 " fill-opacity="1" fill-rule="nonzero"/><g clip-path="url(#d00a3993a2)"><path fill="#ff8869" d="M 33.207031 9.519531 C 33.300781 9.101562 33.15625 8.550781 32.765625 8.320312 C 29.617188 6.445312 26.265625 4.9375 22.761719 3.871094 C 22.203125 3.699219 21.621094 3.886719 21.339844 4.417969 C 21.089844 4.886719 21.175781 5.613281 21.675781 5.90625 C 23.058594 6.722656 24.476562 7.480469 25.921875 8.183594 C 25.316406 8.308594 24.71875 8.460938 24.128906 8.628906 C 21.71875 9.320312 19.347656 10.25 17.203125 11.554688 C 16.132812 12.203125 15.183594 12.949219 14.238281 13.765625 C 13.160156 14.699219 12.113281 15.671875 11.128906 16.710938 C 9.171875 18.769531 7.484375 21.015625 6.222656 23.570312 C 4.921875 26.203125 4.179688 29.085938 3.855469 31.996094 C 3.8125 32.394531 3.777344 32.792969 3.746094 33.191406 C 3.703125 33.796875 6.015625 34.046875 6.0625 33.394531 C 6.121094 32.625 6.203125 31.855469 6.316406 31.089844 C 6.371094 30.730469 6.433594 30.375 6.5 30.015625 C 6.535156 29.847656 6.566406 29.679688 6.601562 29.511719 C 6.617188 29.445312 6.632812 29.378906 6.648438 29.316406 C 6.65625 29.265625 6.667969 29.21875 6.679688 29.171875 C 6.996094 27.855469 7.421875 26.570312 7.964844 25.328125 C 8.09375 25.035156 8.226562 24.742188 8.371094 24.449219 C 8.445312 24.300781 8.519531 24.152344 8.59375 24.003906 C 8.605469 23.984375 8.617188 23.960938 8.628906 23.941406 C 8.65625 23.886719 8.6875 23.832031 8.71875 23.777344 C 9.023438 23.21875 9.355469 22.671875 9.710938 22.140625 C 10.4375 21.042969 11.253906 20.007812 12.132812 19.023438 C 12.238281 18.90625 12.347656 18.789062 12.453125 18.671875 C 12.507812 18.613281 12.578125 18.554688 12.625 18.488281 C 12.632812 18.480469 12.640625 18.46875 12.652344 18.460938 C 12.890625 18.210938 13.136719 17.960938 13.382812 17.714844 C 13.875 17.230469 14.375 16.757812 14.886719 16.296875 C 15.800781 15.472656 16.730469 14.632812 17.753906 13.945312 C 17.855469 13.875 17.957031 13.8125 18.058594 13.746094 C 18.066406 13.738281 18.082031 13.730469 18.101562 13.71875 C 18.132812 13.695312 18.175781 13.671875 18.195312 13.660156 C 18.433594 13.515625 18.675781 13.378906 18.917969 13.242188 C 19.417969 12.964844 19.929688 12.710938 20.445312 12.46875 C 21.566406 11.945312 22.722656 11.496094 23.898438 11.117188 C 23.964844 11.09375 24.03125 11.074219 24.09375 11.054688 C 24.078125 11.058594 24.058594 11.066406 24.046875 11.070312 C 24.066406 11.0625 24.089844 11.058594 24.101562 11.050781 C 24.253906 11.007812 24.40625 10.960938 24.558594 10.917969 C 24.847656 10.835938 25.140625 10.757812 25.433594 10.683594 C 26.011719 10.539062 26.597656 10.417969 27.183594 10.320312 C 27.308594 10.296875 27.433594 10.277344 27.5625 10.261719 C 26.730469 10.90625 25.984375 11.660156 25.34375 12.515625 C 24.875 13.136719 24.488281 13.8125 24.148438 14.511719 C 23.9375 14.949219 24.160156 15.605469 24.558594 15.867188 C 24.992188 16.148438 25.5625 16.160156 25.976562 15.824219 C 27.847656 14.292969 29.722656 12.761719 31.59375 11.230469 C 31.820312 11.050781 31.960938 10.777344 32.003906 10.492188 C 32.097656 10.464844 32.191406 10.4375 32.28125 10.414062 C 32.746094 10.289062 33.097656 10.003906 33.207031 9.519531 Z M 33.207031 9.519531 " fill-opacity="1" fill-rule="nonzero"/></g></svg>