<svg xmlns="http://www.w3.org/2000/svg" xmlns:xlink="http://www.w3.org/1999/xlink" width="50" zoomAndPan="magnify" viewBox="0 0 37.5 37.499999" height="50" preserveAspectRatio="xMidYMid meet" version="1.0"><defs><clipPath id="8a972d36c5"><path d="M 3.699219 3.40625 L 33.257812 3.40625 L 33.257812 33.75 L 3.699219 33.75 Z M 3.699219 3.40625 " clip-rule="nonzero"/></clipPath></defs><path fill="#ff8869" d="M 12.914062 10.773438 C 13.003906 10.804688 13.113281 10.839844 12.914062 10.773438 Z M 12.914062 10.773438 " fill-opacity="1" fill-rule="nonzero"/><g clip-path="url(#8a972d36c5)"><path fill="#ff8869" d="M 3.753906 9.222656 C 3.65625 8.808594 3.804688 8.253906 4.195312 8.023438 C 7.34375 6.148438 10.695312 4.640625 14.199219 3.574219 C 14.757812 3.402344 15.339844 3.59375 15.621094 4.121094 C 15.871094 4.589844 15.785156 5.316406 15.285156 5.613281 C 13.898438 6.425781 12.484375 7.183594 11.039062 7.886719 C 11.640625 8.011719 12.242188 8.164062 12.832031 8.332031 C 15.238281 9.023438 17.613281 9.957031 19.757812 11.257812 C 20.824219 11.90625 21.777344 12.652344 22.722656 13.46875 C 23.800781 14.402344 24.847656 15.378906 25.832031 16.414062 C 27.789062 18.472656 29.476562 20.71875 30.738281 23.277344 C 32.039062 25.90625 32.78125 28.789062 33.105469 31.699219 C 33.148438 32.097656 33.183594 32.496094 33.214844 32.894531 C 33.257812 33.503906 30.945312 33.75 30.894531 33.097656 C 30.839844 32.328125 30.757812 31.558594 30.640625 30.792969 C 30.589844 30.433594 30.527344 30.078125 30.460938 29.71875 C 30.425781 29.550781 30.394531 29.382812 30.355469 29.21875 C 30.34375 29.152344 30.328125 29.085938 30.3125 29.019531 C 30.300781 28.972656 30.292969 28.921875 30.28125 28.875 C 29.964844 27.5625 29.539062 26.273438 28.996094 25.035156 C 28.867188 24.738281 28.730469 24.445312 28.589844 24.152344 C 28.515625 24.003906 28.441406 23.855469 28.363281 23.707031 C 28.355469 23.6875 28.34375 23.667969 28.332031 23.644531 C 28.304688 23.589844 28.273438 23.535156 28.242188 23.480469 C 27.933594 22.921875 27.601562 22.375 27.25 21.84375 C 26.523438 20.746094 25.707031 19.710938 24.828125 18.730469 C 24.722656 18.609375 24.613281 18.492188 24.507812 18.375 C 24.453125 18.316406 24.382812 18.257812 24.335938 18.195312 C 24.328125 18.183594 24.316406 18.175781 24.308594 18.164062 C 24.066406 17.914062 23.824219 17.664062 23.574219 17.417969 C 23.085938 16.933594 22.585938 16.464844 22.074219 16.003906 C 21.15625 15.175781 20.230469 14.335938 19.207031 13.648438 C 19.105469 13.582031 19.003906 13.515625 18.902344 13.449219 C 18.894531 13.445312 18.878906 13.433594 18.859375 13.421875 C 18.828125 13.402344 18.785156 13.375 18.765625 13.363281 C 18.527344 13.21875 18.285156 13.082031 18.042969 12.945312 C 17.542969 12.671875 17.03125 12.414062 16.511719 12.171875 C 15.390625 11.648438 14.238281 11.199219 13.058594 10.820312 C 12.996094 10.800781 12.929688 10.78125 12.867188 10.757812 C 12.882812 10.765625 12.898438 10.769531 12.914062 10.773438 C 12.890625 10.765625 12.871094 10.761719 12.855469 10.757812 C 12.707031 10.710938 12.554688 10.664062 12.402344 10.621094 C 12.113281 10.539062 11.820312 10.460938 11.527344 10.386719 C 10.949219 10.246094 10.363281 10.121094 9.777344 10.023438 C 9.652344 10 9.523438 9.980469 9.398438 9.964844 C 10.230469 10.609375 10.976562 11.367188 11.617188 12.21875 C 12.082031 12.839844 12.472656 13.515625 12.8125 14.21875 C 13.023438 14.65625 12.796875 15.308594 12.402344 15.570312 C 11.96875 15.855469 11.398438 15.863281 10.984375 15.527344 C 9.113281 13.996094 7.238281 12.464844 5.363281 10.9375 C 5.140625 10.753906 5 10.480469 4.957031 10.195312 C 4.957031 10.195312 4.957031 10.195312 4.953125 10.195312 C 4.863281 10.167969 4.769531 10.140625 4.675781 10.117188 C 4.214844 9.992188 3.863281 9.710938 3.753906 9.222656 Z M 3.753906 9.222656 " fill-opacity="1" fill-rule="nonzero"/></g></svg>